<svg xmlns="http://www.w3.org/2000/svg" viewBox="0 0 273.74 183.17"><defs><style>.cls-1{fill:#ec1e79;}.cls-2{fill:#e51b71;}.cls-3{fill:#010101;}.cls-4{fill:#d50b51;}.cls-5{fill:#020202;}.cls-6{fill:#040404;}.cls-7{fill:#010201;}.cls-8{fill:#d60d52;}.cls-9{fill:#d50c52;}.cls-10{fill:#d60c52;}.cls-11{fill:#d60c51;}.cls-12{fill:#020302;}.cls-13{fill:#080808;}.cls-14{fill:#050505;}.cls-15{fill:#aeaeae;}.cls-16{fill:#e51b72;}.cls-17{fill:#d50b50;}.cls-18{fill:#ef1c76;}.cls-19{fill:#de0b54;}.cls-20{fill:#8b1045;}.cls-21{fill:#ec1e78;}.cls-22{fill:#eb1e78;}.cls-23{fill:#fcfcfc;}.cls-24{fill:#fefdfd;}</style></defs><title>Recurso 3</title><g id="Capa_2" data-name="Capa 2"><g id="Capa_2-2" data-name="Capa 2"><path class="cls-1" d="M136.92,108.05H272.14c1.79,0,1.57-.21,1.58,1.61,0,1.4,0,2.8,0,4.2,0,.71-.16,1.07-.93,1a5.77,5.77,0,0,0-.72,0H1.66c-1.88,0-1.62.27-1.64-1.65,0-1.36,0-2.72,0-4.08,0-.75.15-1.16,1-1a5.87,5.87,0,0,0,.84,0Z"/><path class="cls-1" d="M136.79,162.58H1.57c-1.55,0-1.55,0-1.55-1.52s0-3,0-4.44c0-.63.21-.88.83-.82a7.85,7.85,0,0,0,.84,0H271.88c1.93,0,1.64-.25,1.66,1.63,0,1.44,0,2.88,0,4.32,0,.63-.18.89-.82.83-.31,0-.64,0-1,0Z"/><path d="M158.34,70.29c.73,1,.46,1.85-.3,2.78q-9.12,11.16-18.19,22.38l-.76.92c-2,2.44-4.71,2.48-6.7,0-3.28-4-6.53-8-9.8-12.08q-9-11.1-18-22.21c-2.63-3.24-5.3-6.47-7.93-9.73a1.56,1.56,0,0,1,.13-2.33q8.94-9,17.86-18.06a5.2,5.2,0,0,1,3.8-1.5c7.88,0,15.75,0,23.63,0A1.71,1.71,0,0,1,144,32c0,1.07-.33,1.56-1.34,1.7-.63.08-1.27,0-1.91,0-1,0-1.09.12-.55,1,1,1.75,2.06,3.51,3.05,5.3s2.14,3.55,3.14,5.38a2.54,2.54,0,0,0,.83,1.14c.33-.12.37-.42.46-.67,1.27-3.67,2.7-7.27,4-10.93.4-1.13.34-1.21-.87-1.24a15.52,15.52,0,0,1-1.67,0c-1-.15-1.33-.62-1.3-1.74a1.65,1.65,0,0,1,1.84-1.48c1.2,0,2.4,0,3.6,0a5.94,5.94,0,0,1,4.1,1.94q8.49,8.64,17,17.24c1.09,1.1,1.16,1.84.21,3-3.8,4.67-7.62,9.31-11.39,14a1.8,1.8,0,0,1-2.36.74c-1-.72-1.13-1.53-.31-2.62,1.55-2.09,3.23-4.06,4.89-6,1.32-1.6,2.6-3.23,3.88-4.86.18-.23.52-.44.27-.82a2.43,2.43,0,0,0-1.07-.1H150.56a2.63,2.63,0,0,0-1.18.13,2.37,2.37,0,0,0-.58,1.41q-3.74,16.49-7.41,33a8.12,8.12,0,0,1-.22.81c0,.14-.13.28-.18.43s.07.23,0,.07.23,0,.08-.08c4.27-5.41,8.65-10.7,13-16A24.64,24.64,0,0,1,156,70.4,1.51,1.51,0,0,1,158.34,70.29Z"/><path d="M82.29,130.42l-6,18.83c-.4,1.25-.82,2.5-1.18,3.76-.18.63-.44.9-1.15.88-2-.06-3.92-.07-5.88,0a1.16,1.16,0,0,1-1.34-1q-2.74-8.85-5.55-17.7c-.58-1.85-1.17-3.69-1.91-5.51,0,1.13,0,2.27,0,3.4.19,6.52.38,13,.62,19.54,0,1-.23,1.29-1.23,1.25-2.2-.08-4.4,0-6.6,0-.7,0-1-.14-1-.92q0-17,0-34.07c0-.72.26-.86.9-.86q5.7,0,11.4,0c.73,0,1,.31,1.11.94q2.61,9.84,5.25,19.67c.35,1.31.71,2.62,1.09,4a3.43,3.43,0,0,0,.62-1.5q2.92-11.05,5.84-22.12c.19-.73.45-1,1.26-1q5.52.08,11,0c.85,0,1.06.24,1.06,1.07q0,16.86,0,33.71c0,.84-.22,1.1-1.07,1.08-2.15-.06-4.32-.07-6.47,0-.91,0-1.14-.21-1.11-1.12.22-6.28.37-12.55.54-18.83,0-.2,0-.4,0-.6a12.32,12.32,0,0,0,0-2.91C82.56,130,82.39,130.38,82.29,130.42Z"/><path d="M161.32,118c2.83,0,5.63,0,8.42,0,.64,0,.69.39.79.82q1.71,7.91,3.43,15.81c.46,2.1.92,4.21,1.4,6.31.07.29,0,.66.51.87.28-1,.57-1.89.82-2.84q2.64-9.88,5.25-19.8c.22-.85.54-1.23,1.51-1.19,2,.09,4.07,0,6.11,0a.9.9,0,0,1,1.06.81q2.56,9.54,5.21,19.06c.39,1.42.8,2.83,1.28,4.53.18-.64.31-1,.39-1.42,1.58-7.33,3.17-14.67,4.72-22,.15-.73.38-1,1.14-1q3.6.07,7.2,0c.81,0,.92.2.73,1q-3.34,12.87-6.64,25.75c-.71,2.79-1.46,5.56-2.14,8.35-.17.7-.51.85-1.17.84-2.52,0-5,0-7.56,0-.72,0-1-.28-1.14-.9q-2.12-7.6-4.28-15.21c-.53-1.85-1.09-3.68-1.62-5.52-.07-.25-.21-.48-.44-.51s-.29.2-.34.41c-1.17,4.89-2.74,9.66-4.08,14.51-.58,2.07-1.19,4.14-1.76,6.22a1.13,1.13,0,0,1-1.31,1q-3.66-.09-7.32,0a1.1,1.1,0,0,1-1.3-1q-3-12-6.13-24c-.88-3.44-1.8-6.87-2.7-10.31A3.82,3.82,0,0,1,161.32,118Z"/><path d="M156.66,122.14c-3-3-6.79-4.38-10.94-4.87-10.95-1.28-19.71,4.82-21.13,15.19a18.24,18.24,0,0,0,4.54,15.44,17.69,17.69,0,0,0,13.14,5.59c11.51,0,19.12-6.72,19.77-17A18.13,18.13,0,0,0,156.66,122.14Zm-7.91,22.26a9.22,9.22,0,0,1-14.42-4.71,13.67,13.67,0,0,1,.78-10.69c1.93-3.67,5.16-5,9.12-4.54a8.61,8.61,0,0,1,7.62,6.17,13.37,13.37,0,0,1,.79,4.94C152.58,139.05,151.71,142.2,148.75,144.4Z"/><path d="M272.73,152.09c-2.57-4.23-5.12-8.47-7.72-12.67-.44-.72-.34-1,.44-1.26a9.65,9.65,0,0,0,3-1.69c4.21-3.45,3.47-11,.79-14.26-2.44-3-5.76-3.92-9.38-4-5.51-.09-11,0-16.55,0-.76,0-.93.23-.93,1q0,16.79,0,33.58c0,.77.27.93,1,.92,2.2,0,4.4,0,6.59,0,.83,0,1.09-.18,1.08-1,0-3.08,0-6.16,0-9.24,0-1.1-.49-2.57.22-3.21s2.06-.09,3.12-.2a1.61,1.61,0,0,1,1.69,1q3.48,5.79,7,11.54c.28.44.41,1.11,1.12,1.11h9.35C273.22,153,273,152.52,272.73,152.09ZM258.89,133.6c-2.38.17-4.79.06-7.19.11-.65,0-.69-.33-.68-.82,0-1.28,0-2.56,0-3.84s0-2.48,0-3.72c0-.65.22-.81.83-.8,2.28,0,4.56,0,6.84,0,2.87.08,4.25,1.46,4.32,4.17C263.09,131.64,261.71,133.39,258.89,133.6Z"/><path d="M22.86,135.81c0-5.52,0-11,0-16.56,0-.9.21-1.14,1.12-1.13q11.28.06,22.56,0c1,0,1.2.32,1.16,1.22q-.1,2.34,0,4.68c0,.77-.25.92-1,.91-4.88,0-9.75,0-14.63,0-.92,0-1.16.25-1.11,1.13.07,1.48.06,3,0,4.44,0,.77.24.93.95.92,4.24,0,8.48,0,12.72,0,1,0,1.26.29,1.21,1.26a31,31,0,0,0,0,4.31c.08,1.07-.33,1.22-1.28,1.21-4.15-.05-8.31,0-12.47-.05-.9,0-1.17.22-1.13,1.13.07,2,.07,4.08,0,6.12,0,.94.3,1.11,1.16,1.1,4.92,0,9.84,0,14.76-.06,1.28,0,1.54.38,1.47,1.54-.1,1.6,0,3.2,0,4.8,0,.66-.15.9-.86.9q-11.88,0-23.76,0c-.81,0-.89-.31-.89-1C22.87,147,22.86,141.4,22.86,135.81Z"/><path d="M214.06,135.84c0-5.52,0-11,0-16.55,0-1,.29-1.17,1.21-1.17q11.2.06,22.42,0c.94,0,1.24.22,1.19,1.17a40.8,40.8,0,0,0,0,4.56c.06,1-.3,1.08-1.14,1.08-4.79,0-9.59,0-14.39-.05-1,0-1.21.26-1.16,1.19a41.5,41.5,0,0,1,0,4.32c0,.8.23,1,1,1,4.2,0,8.4,0,12.6,0,.95,0,1.34.17,1.27,1.22a43.16,43.16,0,0,0,0,4.55c0,.8-.22,1-1,1-4.24,0-8.48,0-12.71,0-.87,0-1.18.17-1.14,1.1.07,2.08.06,4.16,0,6.24,0,.8.23,1,1,1,5,0,10.07,0,15.11,0,1,0,1.31.22,1.25,1.24-.09,1.71,0,3.43,0,5.15,0,.62-.17.83-.81.83q-11.92,0-23.86,0c-.91,0-.8-.52-.8-1.08C214.07,147,214.06,141.4,214.06,135.84Z"/><path d="M120.68,121.78c-2.16-2.79-5.35-3.63-8.75-3.65-5.55,0-11.11,0-16.66-.07-1,0-1.2.26-1.19,1.2,0,5.55,0,11.11,0,16.66s0,11.27,0,16.91c0,.77.18,1,1,1q3.3-.07,6.59,0c.81,0,1-.25,1-1,0-3.56,0-7.12-.06-10.67,0-1.28.38-1.48,1.53-1.46a63.78,63.78,0,0,0,8.74-.2c4.39-.52,7.78-2.58,9.36-6.79A11.82,11.82,0,0,0,120.68,121.78Zm-7.13,11.12a4.92,4.92,0,0,1-3.67,1.53c-2.15.12-4.31,0-6.47.07-.6,0-.75-.23-.73-.78,0-1.44,0-2.88,0-4.32s0-2.8,0-4.2c0-.58.1-.86.78-.85,2.27.06,4.56,0,6.83.09a4.08,4.08,0,0,1,4,2.68A5.62,5.62,0,0,1,113.55,132.9Z"/><path class="cls-2" d="M140.82,88.64l6.36-28.49c.46-2.06.9-4.13,1.38-6.19.08-.36,0-.81.45-1.05,6.65,0,13.3,0,20,0,.42,0,.89-.11,1.24.26-1.61,2.33-3.51,4.43-5.27,6.65-1.36,1.72-2.73,3.43-4.15,5.11a1.67,1.67,0,0,0,.05,2.53l-2.49,2.84a1.9,1.9,0,0,0-2.49.68c-4.49,5.59-9,11.14-13.55,16.7-.4.5-.81,1-1.21,1.48C140.65,89.17,140.7,88.92,140.82,88.64Z"/><path d="M13.28,146c0,2.24,0,4.48,0,6.71,0,.81-.25,1-1,1-2,0-4.08-.07-6.11,0-1,0-1.11-.33-1.11-1.17,0-4.4,0-8.8,0-13.2,0-.92-.24-1.18-1.13-1.11s-2,0-3,0c-.61,0-.85-.16-.83-.8,0-1.72,0-3.44,0-5.16,0-.58.18-.76.75-.74,1,0,2.09,0,3.12,0s1.08-.28,1-1.08a17.89,17.89,0,0,1,.67-6.17,8.74,8.74,0,0,1,8-6.45,35.19,35.19,0,0,1,5,.16c.6,0,.72.29.71.82,0,2,0,3.92,0,5.88,0,.64-.18.85-.83.72a9.43,9.43,0,0,0-1.68-.11c-2.54,0-3.4.7-3.66,3.2-.33,3-.33,3,2.63,3,1,0,2.22-.31,2.78.17s.21,1.88.21,2.86c0,1.18.52,2.71-.24,3.45s-2.2.17-3.36.18c-2,0-2,0-2,2V146Z"/><path class="cls-3" d="M159.64,95.54c0-1,0-2,0-3a7.09,7.09,0,0,1,5.25-7.16,1.63,1.63,0,0,0,1.32-1.27,2.55,2.55,0,0,1,2.59-1.92c.8,0,1.6,0,2.4-.08s1.15-.39,1.13-1.12-.53-.94-1.15-.94c-1.72,0-3.44,0-5.15,0a2.68,2.68,0,1,1,0-5.34c1.44,0,2.88,0,4.32,0,1.21,0,1.93-.65,1.94-1.65a1.72,1.72,0,0,0-1.93-1.67c-1.64,0-3.28,0-4.92,0-.6,0-1.18-.06-1.16-.84s.6-.83,1.2-.82c1.71,0,3.43,0,5.15,0A3.23,3.23,0,0,1,174,73.07a3.32,3.32,0,0,1-3.38,3.32c-1.48,0-3,0-4.43,0-.71,0-1.37.14-1.38,1s.62,1,1.35,1c1.63,0,3.27,0,4.91,0A2.68,2.68,0,0,1,174,81c.05,1.63-1,2.66-2.77,2.79-.8.06-1.6.08-2.4.1a1,1,0,0,0-1.08.91c-.06.59.56.44.89.54A7.11,7.11,0,0,1,174,92.62c0,2.08,0,4.16,0,6.24a7.19,7.19,0,0,1-7.08,7.26A7.27,7.27,0,0,1,159.65,99C159.61,97.85,159.64,96.69,159.64,95.54Z"/><path class="cls-3" d="M156.64,182.22c-1.37.94-2.87.82-4.38.82-.45,0-.48-.37-.57-.65-.17-.49-.3-1-.45-1.51.06,0,.2-.08.28,0,2.64,1.39,5.06-.59,5.87-2.82a9,9,0,0,0,.56-3.88c-.23-2.73-2.68-3.93-4.94-2.38a5.2,5.2,0,0,0-2.35,3.72c-.31.16,0,.8-.6.74-.37-1.38-.75-2.75-1.21-4.43-.5,2-.93,3.65-1.39,5.42a11.75,11.75,0,0,0,1.89,0c.76-.12,1,.28,1.07.88a3.79,3.79,0,0,0,0,.83c.14.55-.06.68-.59.69-1,0-2.16-.41-2.79.16s-.68,1.73-.91,2.65a.72.72,0,0,1-.82.65c-.83,0-1.66,0-2.6,0,1.36-4.43,2.69-8.73,4-13a1.6,1.6,0,0,1,.16-.45c.36-.45,4-.29,4.22.24.24.72.55.46,1,.23a6.89,6.89,0,0,1,4.75-.76,4.46,4.46,0,0,1,3.68,3.63A9.63,9.63,0,0,1,156.64,182.22Z"/><path class="cls-4" d="M147.8,32c.23,1.21,1,1.54,2.18,1.51,2.5,0,2.52,0,1.67,2.39-1.27,3.57-2.57,7.13-3.86,10.7a1.2,1.2,0,0,1-.64.84c-2.64-4.57-5.29-9.14-8.08-14,1.11,0,2,0,3,0A1.66,1.66,0,0,0,144,32Z"/><path d="M139.11,176.59c1.91-1.24,2.54-2.53,2.16-4.33-.32-1.58-1.6-2.63-3.69-2.9a25.24,25.24,0,0,0-5.14,0c-.69.05-.92.31-.92,1,0,3.48,0,6.95,0,10.43,0,2.36,0,2.34,2.43,2.2.55,0,.67-.21.66-.71,0-1.11,0-2.23,0-3.35,0-1.35.41-1.63,1.72-1.19a2.14,2.14,0,0,1,1.33,1.71l.78,2.89c.1.37.26.65.73.63.86,0,1.72,0,2.72,0C140.9,180.8,141.21,178.23,139.11,176.59Zm-2.5-1.25a3.43,3.43,0,0,1-.46.11c-1.45.22-1.53.15-1.53-1.34v-.59a.48.48,0,0,1,0-.12c.23-.64-.64-1.78.88-1.84s2.55.46,2.72,1.53S137.87,175,136.61,175.34Z"/><path class="cls-3" d="M194.89,178.68c2-2.89,4.06-5.79,6.1-8.67a3,3,0,0,1,2.55-.67c.35.18.23.48.2.74-.56,4.14-1.08,8.3-1.71,12.43-.17,1.09-1.18.39-1.79.5s-.42-.5-.38-.83c.32-2.44.66-4.89,1-7.34.06-.32.48-.79-.31-.77l-5.76,8.34a3.7,3.7,0,0,1-2.95.59c-.27-.18-.16-.43-.13-.64.55-4.15,1.09-8.3,1.69-12.44.17-1.16,1.17-.45,1.76-.55s.46.49.42.82c-.32,2.49-.66,5-1,7.47a1.91,1.91,0,0,0-.06,1.11,1.39,1.39,0,0,1-.12.38c-.05.15,0,.22,0,.06s.19,0,.06-.08A1.1,1.1,0,0,1,194.89,178.68Z"/><path d="M118.68,183c-1.2,0-2.18,0-3.16,0-.52,0-.65-.35-.83-.71-.66-1.34-1.33-2.67-2-4.14-.61,1.36-1.21,2.53-1.67,3.76a1.44,1.44,0,0,1-1.69,1.1c-.73-.07-1.48,0-2.4,0,1.25-2.2,2.38-4.24,3.56-6.26a1.06,1.06,0,0,0,0-1.27c-1.17-2-2.25-4-3.45-6.17,1.14,0,2.12,0,3.1,0,.6,0,.69.45.88.83l1.82,3.87c.59-1.32,1.19-2.48,1.63-3.69a1.31,1.31,0,0,1,1.6-1c.73.1,1.81-.34,2.12.19s-.53,1.29-.9,1.93c-.74,1.32-1.48,2.64-2.28,3.92a1.26,1.26,0,0,0,.11,1.52C116.26,178.87,117.41,180.86,118.68,183Z"/><path class="cls-3" d="M185.3,173.79a4.51,4.51,0,0,0-3-3.94,11.54,11.54,0,0,0-4.36-.59c-.79,0-1.59.09-2.39.11-.57,0-.8.23-.88.84-.51,4-1.07,7.91-1.64,11.85-.08.6,0,.9.68.92,1.07,0,2.15.2,3.22.16C182.28,182.94,185.88,178.9,185.3,173.79Zm-8.52,7.46c-1.05.25-1.24-.3-1.06-1.4.42-2.55.77-5.13,1.09-7.7.08-.64.27-1,.94-.91s1.28,0,1.9.12a3.3,3.3,0,0,1,3.06,3.3C182.85,177.88,181.14,181.28,176.78,181.25Z"/><path class="cls-3" d="M97.08,176.26c0-2,0-4,0-6,0-.73.19-1,.93-.94,2.24.05,4.48,0,6.72,0,.63,0,.81.18.82.81,0,1.79.07,1.79-1.76,1.79-.92,0-1.84,0-2.76,0-.63,0-.89.18-.82.81a3.37,3.37,0,0,1,0,.84c-.14.93.19,1.28,1.17,1.2s2,0,3,0,.85.69.84,1.27.34,1.36-.81,1.29-2.24,0-3.36,0c-.61,0-.81.16-.84.8-.09,2.48-.12,2.47,2.39,2.47a15.21,15.21,0,0,0,1.91,0c1-.12,1.36.17,1.36,1.27s-.35,1.32-1.36,1.28c-2.12-.08-4.24-.06-6.36,0-.81,0-1.1-.17-1.07-1C97.13,180.1,97.08,178.18,97.08,176.26Z"/><path class="cls-3" d="M224.31,175.88c2.28-1.63,2.49-4.28,3.83-6.54a7.6,7.6,0,0,1-1.12,0,1.52,1.52,0,0,0-1.94,1.23,24.36,24.36,0,0,1-1,2.44,2.91,2.91,0,0,1-2.82,2c-.71,0-1-.09-.84-.92.26-1.29.4-2.61.56-3.92,0-.33.28-.95-.42-.83s-1.7-.59-1.88.58c-.64,4.07-1.17,8.15-1.74,12.22,0,.31-.13.69.34.75,2.52.34,5,.59,7.25-1.07a4.06,4.06,0,0,0,1.67-3.3A2.83,2.83,0,0,0,224.31,175.88Zm-3.66,5.4c-.86.16-1.25-.19-1-1.24a11.76,11.76,0,0,0,.32-2.36c0-.66.27-.86.93-.86,1.87,0,2.78.55,2.82,1.82C223.77,180.12,222.55,181.22,220.65,181.28Z"/><path class="cls-3" d="M169.12,175.85c2.2-1.6,2.45-4.26,3.71-6.44-2.35-.17-2.35-.17-3.24,1.74-.3.65-.52,1.34-.82,2a2.82,2.82,0,0,1-2.9,1.88c-.58,0-.77-.15-.66-.77.22-1.29.37-2.6.52-3.91,0-.41.38-1.12-.49-1-.63.1-1.65-.62-1.82.63-.58,4-1.12,8.07-1.66,12.11,0,.35-.15.76.39.83,2.19.29,4.41.52,6.44-.63C171.58,180.63,171.82,177.52,169.12,175.85Zm-1.29,4.5a3.43,3.43,0,0,1-3.08.9c-.45-.06-.45-.37-.4-.71.11-.9.26-1.81.32-2.72s.38-1.17,1-1c1.2.13,2.2.06,2.7,1.14A2.11,2.11,0,0,1,167.83,180.35Z"/><path class="cls-3" d="M213.84,171.31a2.09,2.09,0,0,0-.08.23c-.35,1.42-1.18,1.88-2.67,1.78-2.35-.16-2.35,0-2.72-2.34-.28-1.76-.28-1.73-2.05-1.66-.64,0-.7.25-.6.8.69,3.89,1.34,7.79,2,11.68.09.47-.11,1.33.77,1.21s2.26.69,2.89-.87,1.51-3.34,2.26-5l3.46-7.73C214.69,169.28,214.69,169.28,213.84,171.31Zm-4.09,9.59c-.29-2-.52-3.6-.78-5.24-.07-.42.06-.58.48-.58.87,0,1.74,0,2.79,0Z"/><path class="cls-3" d="M242.44,171.12a1.51,1.51,0,0,0-.18.44c-.27,1.42-1.1,1.83-2.53,1.75-2.43-.13-2.54,0-2.77-2.49-.12-1.36-.68-1.57-1.87-1.52-.88,0-1,.33-.82,1.06.7,3.81,1.35,7.63,2,11.43.09.47-.2,1.35.71,1.22s2.23.71,2.9-.82c1.31-3,2.76-6,4.08-9a22.29,22.29,0,0,0,1.57-3.73C243.32,169.2,243.32,169.2,242.44,171.12Zm-2,4.73c-.68,1.6-1.39,3.2-2.16,5-.29-1.85-.55-3.52-.8-5.2,0-.18-.1-.47.16-.48a19.36,19.36,0,0,1,2.85,0C240.86,175.19,240.58,175.63,240.48,175.85Z"/><path class="cls-3" d="M123.05,177.51c0-1.52,0-3,0-4.56,0-.71-.16-1-.93-1-.47.06-1,0-1.43,0-1,.16-1.32-.23-1.34-1.29s.34-1.45,1.47-1.41c2.71.09,5.44.08,8.15,0,1.1,0,1,.6.89,1.21s.49,1.54-.85,1.49c-.9,0-2.09-.41-2.65.18s-.17,1.83-.18,2.78q0,3.6,0,7.19c0,.68-.17.88-.86.9-2.29,0-2.29.06-2.29-2.2Z"/><path class="cls-5" d="M78.69,179.12a11.77,11.77,0,0,0,0,1.68c.22,1.34-.32,1.9-1.65,2.08-2.33.3-4.63.56-6.72-.82a7,7,0,0,1-2.77-7.26,6.67,6.67,0,0,1,5.58-5.51,10,10,0,0,1,4.39.21c.43.13.87.21.58.88-.21.5-.25.88-1,.64-2.2-.67-4.38-.59-6.16,1.08a6.11,6.11,0,0,0-.92,7,5.47,5.47,0,0,0,6.22,2.43c.46-.11.72-.3.69-.8s0-.8,0-1.2c0-2.13,0-2.15-2.07-2.29-.5,0-.69-.17-.7-.7s.18-.77.76-.75c1,0,2.07,0,3.11,0,.53,0,.7.18.69.7C78.67,177.36,78.69,178.24,78.69,179.12Z"/><path class="cls-3" d="M44.13,169.75c-.29-.84-1-.33-1.55-.45s-.79.06-1,.61c-.52,1.63-1.11,3.24-1.66,4.86l-2.74,8.13c1.82.19,1.82.19,2.32-1.41.11-.34.19-.69.31-1,.63-1.77.63-1.77,2.54-1.77,2.92,0,3,0,3.8,2.8.37,1.34,1,1.77,2.42,1.38C47.11,178.48,45.63,174.11,44.13,169.75Zm.34,7.51h-.23c-3.46.29-3.46.29-2.42-2.92.32-1,.65-2,1-3.14l1.92,5.58C44.85,177.05,44.83,177.26,44.47,177.26Z"/><path class="cls-3" d="M91.4,181.91c-.44-1.44-.94-2.87-1.43-4.3-.88-2.56-1.8-5.11-2.63-7.69-.26-.79-.81-.62-1.33-.62s-1-.19-1.27.55c-1.43,4.34-2.9,8.68-4.36,13,1.26.41,1.89.09,2.27-1.23.84-3,.93-2.94,4-2.94a4.31,4.31,0,0,0,.72,0c.79-.13,1.16.24,1.36,1,.27,1,.58,1.91.92,2.85s1.13.56,1.65.45C92,182.8,91.5,182.23,91.4,181.91Zm-4.05-4.64c-1.07,0-2.14,0-3.33,0l2-6.1c.65,2,1.24,3.72,1.84,5.48C88,177.14,87.84,177.28,87.35,177.27Z"/><path class="cls-6" d="M53.81,176.14c0-2,0-3.92,0-5.88,0-.81.26-1,1-1s.83.46.82,1c0,3.4,0,6.8,0,10.19,0,.86.22,1.09,1.06,1,1.31-.08,2.64,0,4,0,.45,0,.86-.06.84.65s-.11.86-.79.85c-2,0-4.08,0-6.12,0-.7,0-.76-.32-.76-.87C53.82,180.14,53.81,178.14,53.81,176.14Z"/><path class="cls-7" d="M87.54,75.87c0,3,0,3-2.84,3s-2.87,0-2.87-2.93,0-2.82,2.74-2.8c1,0,2.17-.41,2.77.17S87.45,75.1,87.54,75.87Z"/><path class="cls-8" d="M93.26,17.67c0,2.77,0,2.77-2.8,2.77s-2.88,0-2.88-2.92c0-2.76,0-2.76,2.8-2.76S93.26,14.76,93.26,17.67Z"/><path class="cls-7" d="M190.07,95.51c0,2.79,0,2.79-2.85,2.79s-2.89,0-2.89-2.91,0-2.81,2.76-2.81C190.07,92.58,190.07,92.58,190.07,95.51Z"/><path class="cls-9" d="M90.38,98.3c-2.86,0-2.86,0-2.86-2.83s0-2.9,2.92-2.9,2.82,0,2.82,2.79S93.26,98.3,90.38,98.3Z"/><path class="cls-3" d="M229.17,183c-1,.24-1.08-.22-1-1,.57-3.9,1.14-7.81,1.62-11.72.19-1.53,1.26-.9,2-.91,1,0,.48.83.42,1.25-.51,3.87-1.12,7.73-1.59,11.6C230.47,183.38,229.72,182.94,229.17,183Z"/><path class="cls-3" d="M187.55,183c-.83.12-1.26,0-1.11-1,.6-3.9,1.17-7.81,1.64-11.72.19-1.54,1.25-.88,2-.92,1-.06.48.74.43,1.12-.52,3.95-1.12,7.89-1.63,11.84C188.72,183.36,188,182.92,187.55,183Z"/><path class="cls-10" d="M165.55,23.32c0,2.78,0,2.78-2.8,2.78s-2.87,0-2.87-2.85,0-2.76,2.82-2.76S165.55,20.49,165.55,23.32Z"/><path class="cls-7" d="M96.07,36c-2.85,0-2.85,0-2.85-2.84s0-2.81,2.76-2.81,2.85,0,2.85,2.83v.12C98.83,36,98.83,36,96.07,36Z"/><path class="cls-5" d="M30.44,175.41c0,1.64.07,3.28,0,4.92-.06,1,.31,1.27,1.27,1.21,1.27-.09,2.56,0,3.84,0,.56,0,.77.13.75.72s-.13.78-.73.77q-3.06,0-6.12,0c-.58,0-.75-.18-.75-.75,0-4.07,0-8.15,0-12.23,0-.71.34-.75.88-.74s.92,0,.9.73C30.41,171.81,30.44,173.61,30.44,175.41Z"/><path class="cls-11" d="M154,2.74C154,0,154,0,156.7,0c2.91,0,2.91,0,2.91,2.89,0,2.73,0,2.73-2.7,2.73C154,5.62,154,5.62,154,2.74Z"/><path class="cls-7" d="M104.44,23.27c0,2.77,0,2.77-2.8,2.77s-2.83,0-2.83-2.86,0-2.74,2.68-2.74h.12C104.44,20.44,104.44,20.44,104.44,23.27Z"/><path class="cls-12" d="M103.41,88.16c0,.76-.24,1-1,.93-1.12,0-2.24,0-3.36,0-.53,0-.82-.1-.79-.72,0-1.5.06-3,.09-4.5h5C103.39,85.3,103.35,86.73,103.41,88.16Z"/><path class="cls-10" d="M184.75,68.51v5c-1.45,0-2.92,0-4.38.06-.62,0-.85-.2-.83-.82,0-1.15,0-2.31,0-3.46,0-.62.2-.83.82-.81C181.82,68.54,183.29,68.51,184.75,68.51Z"/><path class="cls-8" d="M189.82,77.82c0,.75-.25,1-1,.93-1.15,0-2.3,0-3.45,0-.51,0-.71-.17-.7-.69,0-1.5,0-3,.06-4.5h5C189.79,75,189.76,76.4,189.82,77.82Z"/><path class="cls-13" d="M65.19,176.26c0,1.91,0,3.83,0,5.75,0,.64,0,1-.87,1s-1-.2-.95-.94q0-5.94,0-11.86c0-.72.19-.95.93-1s.9.35.89,1C65.17,172.26,65.19,174.26,65.19,176.26Z"/><path class="cls-10" d="M189.79,73.53h0s0,0,0,0Z"/><path class="cls-10" d="M194.88,72.84c0,.59-.22.76-.78.74-1.42,0-2.86,0-4.29,0v-5c1.43,0,2.87,0,4.3,0,.55,0,.79.15.77.74C194.84,70.44,194.85,71.64,194.88,72.84Z"/><path class="cls-11" d="M189.81,64.21c0,1.42,0,2.86,0,4.28h-5c0-1.46,0-2.94-.06-4.4,0-.51.16-.71.69-.7,1.23,0,2.47,0,3.7,0C189.72,63.38,189.82,63.69,189.81,64.21Z"/><path class="cls-7" d="M201.36,60.46c0,2.58,0,2.58-2.61,2.58s-2.51,0-2.51-2.57,0-2.55,2.56-2.55S201.36,57.92,201.36,60.46Z"/><path class="cls-7" d="M195.36,55.31c0,2.65,0,2.65-2.67,2.65-2.46,0-2.46,0-2.46-2.5s0-2.62,2.66-2.62C195.36,52.84,195.36,52.84,195.36,55.31Z"/><path class="cls-7" d="M103.38,83.84h0s0,0,0,0Z"/><path class="cls-7" d="M108.36,83.84a34.08,34.08,0,0,1-5,0c0-1.67,0-3.34,0-5,1.42,0,2.84,0,4.26,0,.6,0,.92.13.82.78a.48.48,0,0,0,0,.12A25.76,25.76,0,0,1,108.36,83.84Z"/><path class="cls-7" d="M98.37,83.83h0l0,0S98.36,83.84,98.37,83.83Z"/><path class="cls-7" d="M98.35,78.83v5c-1.51,0-3,0-4.5.09-.58,0-.64-.26-.63-.72,0-1.2,0-2.4,0-3.6,0-.67.27-.79.85-.78C95.49,78.85,96.92,78.83,98.35,78.83Z"/><path class="cls-7" d="M98.38,78.82h0l0,0Z"/><path class="cls-7" d="M103.39,78.8h-5c0-1.49,0-3-.08-4.5,0-.48.18-.6.62-.6,1.28,0,2.55,0,3.82,0,.54,0,.67.21.66.71C103.37,75.88,103.39,77.34,103.39,78.8Z"/><path class="cls-7" d="M103.42,78.8l0,0v0Z"/><path d="M149,26a26,26,0,0,1-4.75,0c0-1.31,0-2.62,0-3.93,0-.57.1-.88.77-.85,1.07.05,2.15.05,3.22,0,.67,0,.78.29.76.86C149,23.38,149,24.69,149,26Z"/><path d="M154,17c-.05,1.31,0,2.63,0,4-1.35,0-2.7,0-4,0-.57,0-.77-.2-.75-.76,0-1.35,0-2.69,0-4,1.32,0,2.64,0,4,0C153.8,16.17,154.06,16.33,154,17Z"/><path d="M144,16.19c0,1.3,0,2.61,0,3.91,0,.65-.16.93-.86.9-1.3-.06-2.6-.05-3.91-.06,0-1.32,0-2.64,0-4,0-.65.22-.82.83-.8C141.32,16.22,142.64,16.19,144,16.19Z"/><path class="cls-14" d="M163.43,70.47a1.57,1.57,0,0,1-1.65,1.65,1.76,1.76,0,0,1-1.68-1.67,1.79,1.79,0,0,1,1.7-1.67A1.63,1.63,0,0,1,163.43,70.47Z"/><path class="cls-15" d="M82.29,130.42a1.79,1.79,0,0,1,.45-1.25,19.94,19.94,0,0,1-.18,4.17C82.25,132.39,82.81,131.36,82.29,130.42Z"/><path class="cls-3" d="M194.89,178.68l-.3.69c-.46,0-.33-.26-.27-.51a2.62,2.62,0,0,1,.26-1.2C194.73,178,194.46,178.44,194.89,178.68Z"/><path class="cls-3" d="M200.54,174.07a.7.7,0,0,1,.51-.65,1.89,1.89,0,0,1-.2,1.42C200.76,174.58,200.88,174.23,200.54,174.07Z"/><path class="cls-4" d="M145.63,53.14c-.71,3.27-1.41,6.55-2.14,9.81q-3.5,15.67-7,31.33c-.1.43-.17.9-.78.87s-.57-.45-.66-.85q-2.35-10.47-4.72-20.92c-1.48-6.58-2.94-13.17-4.44-19.74-.16-.71,0-.92.69-.91,6.16,0,12.31,0,18.47,0a2.25,2.25,0,0,1,.55.15,2.58,2.58,0,0,1-1.29.11H127.41a2.42,2.42,0,0,0-1.07.1c-.15.11.13.17,0,.06s0-.09,0-.12a4.19,4.19,0,0,1,1.06,0h17A2.13,2.13,0,0,1,145.63,53.14Z"/><path class="cls-16" d="M122.54,52.9c.68,2.21,1.1,4.48,1.6,6.73q2.49,11.13,5,22.26c0,1.06-.51.48-.77.2-.76-.82-1.44-1.71-2.15-2.57q-10.25-12.63-20.5-25.26c-.33-.4-1-.93,0-1.35,5.46,0,10.92,0,16.37,0A1.36,1.36,0,0,1,122.54,52.9Z"/><path class="cls-2" d="M155.21,35,170,49.33c-.26.6-.59.43-.83.43-6.07,0-12.15,0-18.22,0-.78,0-1.2,0-.82-1,1.69-4.52,3.31-9.07,5-13.61C155.16,35.06,155.25,35,155.21,35Z"/><path class="cls-2" d="M135.73,33.69l9.28,16H126.46C129.54,44.37,132.59,39.11,135.73,33.69Z"/><path class="cls-4" d="M105.31,53.14a20.27,20.27,0,0,0,2.58,3.38c2.56,3.24,5.18,6.44,7.78,9.64l7.92,9.68c1.6,2,3.19,4,4.82,5.91.12.15.29,1.09.7.14l1.71,7.31-.28.17L101,53c.29-.37.6-.26.86-.26h19.78c.31,0,.65-.12.9.17l-.22,0c-4,.16-7.95,0-11.92.08A33.29,33.29,0,0,0,105.31,53.14Z"/><path class="cls-2" d="M117.12,37.51c1.58,3.87,2.94,7.82,4.3,11.77,0,.57-.42.36-.67.36-4.83,0-9.66,0-14.49,0-.83,0-.88-.31-.53-.92a4.51,4.51,0,0,1,.74-.94c3.18-3,6.06-6.35,9.19-9.42C116.07,38,116.38,37.38,117.12,37.51Z"/><path class="cls-17" d="M124.12,47.72c-1.28-3.49-2.46-6.7-3.63-9.91-.4-1.08-.77-2.18-1.2-3.25-.29-.74-.31-1.12.72-1.1,3.75,0,7.5,0,11.25,0,.93,0,1,.24.59,1-1.72,2.92-3.41,5.85-5.11,8.78Z"/><path class="cls-17" d="M117.12,37.51a74.92,74.92,0,0,0-5.56,5.57c-1.59,1.63-3.18,3.26-4.78,4.87a5.17,5.17,0,0,0-1.06,1.43c.35.28.72.15,1,.15h13.42c.42,0,.89.15,1.23-.25.11.12.23.31,0,.39a1.59,1.59,0,0,1-.69.11l-18.83,0a3,3,0,0,1-.51-.13c1.36-1.39,2.62-2.7,3.9-4,3.36-3.41,6.76-6.79,10.09-10.22.69-.71.91-.53,1.14.25C116.75,36.29,116.94,36.9,117.12,37.51Z"/><path class="cls-18" d="M170.2,53.16l-19.83,0c-.46,0-1,.18-1.36-.22.35-.27.77-.15,1.15-.15q9.54,0,19.08,0c.35,0,.79-.23,1.07.21,0,0,0,.07,0,.1Z"/><path class="cls-19" d="M145.63,53.14H126.22V52.9h19.37a.94.94,0,0,1,.06.15S145.64,53.11,145.63,53.14Z"/><path class="cls-20" d="M140.82,88.64c.07.18,0,.42.27.51-.06.21-.26.45-.39.33S140.63,88.9,140.82,88.64Z"/><path class="cls-21" d="M167,95.14c1.48,0,3,0,4.44,0,.83,0,1,.28,1,1-.06,1.12,0,2.25-.1,3.36a5.52,5.52,0,0,1-5.66,4.93,5.61,5.61,0,0,1-5.41-5.24c0-1,0-2.08,0-3.12,0-.73.21-1,.95-1C163.8,95.17,165.4,95.14,167,95.14Z"/><path class="cls-22" d="M166,90.31c-.12.91.49,2.31-.25,3s-2.06.09-3.11.22-1.5-.3-1.43-1.45A5.91,5.91,0,0,1,165,87c.69-.23,1.13-.25,1.05.71C166,88.52,166,89.32,166,90.31Z"/><path class="cls-1" d="M167.66,90.33c0-1.06,0-1.94,0-2.82,0-.5.1-.69.68-.58,2.37.43,4.63,3.79,4.1,6.13a.51.51,0,0,1-.56.47c-.28,0-.56,0-.84,0-1.06-.05-2.44.44-3.12-.19S167.79,91.24,167.66,90.33Z"/><path class="cls-3" d="M194.32,178.86c.09.17,0,.44.27.51l-.36.73A1.21,1.21,0,0,1,194.32,178.86Z"/><path class="cls-23" d="M98.38,78.83h0v0h0Z"/><path class="cls-23" d="M98.37,83.83h0v0h0v0Z"/><path class="cls-23" d="M103.41,83.84v0h0v0h0Z"/><path class="cls-23" d="M103.42,78.8v0h0v0h0Z"/><path class="cls-24" d="M189.79,68.51h0v0Zm-5,0v0h0Zm5,5v0h0v0Zm-5,0v0h0v0Z"/><path d="M144.14,16v5c-1.45,0-2.92,0-4.38.06-.62,0-.85-.2-.83-.82,0-1.15,0-2.31,0-3.46,0-.62.2-.83.82-.81C141.21,16.06,142.68,16,144.14,16Z"/><path d="M149.21,25.34c0,.75-.25,1-1,.93-1.15-.05-2.3,0-3.45,0-.51,0-.71-.17-.7-.69,0-1.5,0-3,.06-4.5h5C149.18,22.49,149.15,23.92,149.21,25.34Z"/><path d="M149.18,21.05h0s0,0,0,0Z"/><path d="M154.27,20.36c0,.59-.22.76-.78.74-1.42,0-2.86,0-4.29-.05V16c1.43,0,2.87,0,4.3,0,.55,0,.79.15.77.74C154.23,18,154.24,19.16,154.27,20.36Z"/><path d="M149.2,11.73c0,1.42,0,2.86,0,4.28h-5c0-1.46,0-2.94-.06-4.4,0-.51.16-.71.69-.7,1.23,0,2.47,0,3.7,0C149.11,10.9,149.21,11.21,149.2,11.73Z"/><path d="M149.18,16h0v0Zm-5,0v0h0Zm5,5v0h0v0Zm-5,0v0h0v0Z"/><path class="cls-18" d="M105.31,53.14c0-.38.25-.22.39-.22l16.62,0c-.38.35-.84.19-1.26.19Z"/></g></g></svg>